<svg xmlns="http://www.w3.org/2000/svg" viewBox="0 0 256 256" width="256" height="256" role="img" aria-label="MAIA logo">
  <defs>
    <radialGradient id="g" cx="50%" cy="40%" r="70%">
      <stop offset="0%"  stop-color="#FFB59A"/>
      <stop offset="65%" stop-color="#AD3A16"/>
      <stop offset="100%" stop-color="#3A0A00"/>
    </radialGradient>
    <filter id="soft">
      <feGaussianBlur stdDeviation="0.5"/>
    </filter>
  </defs>
  <!-- Background blob: Material 3 Expressive shape -->
  <path d="M128 16
           C 180 16 232 60 240 116
           C 248 172 220 224 168 240
           C 116 256 60 232 32 188
           C 4 144 12 84 56 48
           C 76 32 102 16 128 16 Z"
        fill="url(#g)" filter="url(#soft)"/>
  <!-- "M" emboss with expressive ligature curve -->
  <path d="M64 184
           L 64 80
           Q 64 64 80 64
           L 96 64
           L 128 132
           L 160 64
           L 176 64
           Q 192 64 192 80
           L 192 184
           L 168 184
           L 168 110
           L 144 162
           Q 136 178 128 178
           Q 120 178 112 162
           L 88 110
           L 88 184 Z"
        fill="#FFF1EC" />
  <!-- Spark dot (M3E expressive accent) -->
  <circle cx="200" cy="64" r="10" fill="#F1E2A7"/>
</svg>
